<svg width="100%" height="100%" viewBox="0 0 1081 878" fill="none" xmlns="http://www.w3.org/2000/svg">
<g id="search_button">
<g id="g16">
<g id="g18">
<path id="path30" d="M439.117 877.434C197.055 877.434 0.822632 681.203 0.822632 439.14C0.822632 197.077 197.055 0.846619 439.117 0.846619C681.18 0.846619 877.411 197.077 877.411 439.14C877.411 485.901 870.088 530.953 856.527 573.209L769.035 518.463L727.32 492.36C779.136 388.713 744.632 260.067 645.032 197.743C608.233 174.716 567.355 163.747 526.94 163.747C451.695 163.747 378.084 201.793 335.589 270.909C270.272 377.149 302.808 517.193 408.116 583.088C444.913 606.115 485.792 617.084 526.207 617.084C590.728 617.084 654.048 589.111 697.576 537.559L836.428 624.444C803.08 695.829 751.076 756.723 686.667 800.883C644.589 796.916 591.968 794.56 534.868 794.56C396.883 794.56 285.024 808.321 285.024 825.298C285.024 842.275 396.883 856.036 534.868 856.036C548.891 856.036 562.653 855.893 576.047 855.62C532.96 869.78 486.943 877.434 439.117 877.434Z" fill="url(#paint0_radial)"/>
</g>
</g>
<path id="path32" d="M576.047 855.62C615.712 842.585 652.904 824.029 686.667 800.883C746.269 806.5 784.712 815.347 784.712 825.298C784.712 840.549 694.443 853.205 576.047 855.62Z" fill="#4F6E82" fill-opacity="0.35"/>
<g id="g34">
<g id="g36">
<path id="path48" d="M534.868 856.036C396.883 856.036 285.024 842.274 285.024 825.298C285.024 808.321 396.883 794.56 534.868 794.56C591.968 794.56 644.589 796.916 686.667 800.883C652.904 824.029 615.712 842.585 576.047 855.62C562.653 855.893 548.891 856.036 534.868 856.036Z" fill="url(#paint1_radial)"/>
</g>
</g>
<path id="path50" d="M906.869 604.712L878.537 650.793L689.552 532.537L717.883 486.455L906.869 604.712Z" fill="#B1B1B1"/>
<g id="g52">
<g id="g54">
<path id="path66" d="M769.035 518.463L727.32 492.361V492.36L769.035 518.463Z" fill="url(#paint2_radial)"/>
</g>
</g>
<path id="path68" d="M803.325 539.92L699.957 534.691C706.283 526.943 712.171 518.68 717.556 509.92C721.096 504.163 724.351 498.3 727.32 492.361L769.035 518.463L803.325 539.92Z" fill="#9CA3A4"/>
<g id="g70">
<g id="g72">
<path id="path84" d="M528.523 566.815C515.644 566.815 502.729 565.945 489.823 564.243C452.575 559.327 412.724 548.021 381.555 526.135C372.905 520.061 364.727 513.319 357.343 505.789C313.788 440.557 309.309 352.857 352.996 281.801C391.62 218.977 458.512 184.404 526.907 184.404C563.632 184.404 600.797 194.379 634.236 215.301C729.947 275.192 759.516 402.471 700.151 499.029C696.227 505.412 692.016 511.495 687.537 517.288C662.837 534.849 634.156 547.572 605.443 555.94C580.231 563.288 554.453 566.815 528.523 566.815ZM518.112 205.169C497.66 205.169 477.069 209.771 458.508 217.949C434.204 228.656 410.556 249.016 403.655 275.737C402.875 278.757 405.381 282.085 408.159 282.085C409.109 282.085 410.093 281.695 410.987 280.768C427.405 263.74 444.769 248.796 466.684 239.492C483.557 232.328 501.095 230.495 518.841 230.495C527.437 230.495 536.081 230.924 544.727 231.387C544.935 231.397 545.141 231.403 545.345 231.403C557.395 231.404 562.229 212.276 549.472 209.016C539.259 206.404 528.703 205.169 518.112 205.169Z" fill="url(#paint3_radial)"/>
</g>
</g>
<g id="g86">
<g id="g88">
<path id="path100" d="M526.24 596.427C489.515 596.425 452.349 586.452 418.911 565.529C393.635 549.712 372.973 529.199 357.343 505.789C364.727 513.319 372.905 520.061 381.555 526.135C412.724 548.021 452.575 559.327 489.823 564.243C502.729 565.945 515.644 566.815 528.523 566.815C554.453 566.815 580.231 563.288 605.443 555.94C634.156 547.572 662.837 534.849 687.537 517.288C647.923 568.513 587.685 596.429 526.24 596.427Z" fill="url(#paint4_radial)"/>
</g>
</g>
<path id="path102" d="M1076.6 733.677L1064.39 753.541C1056.32 766.665 1039.23 770.705 1026.22 762.565L832.487 641.339C830.347 640 829.688 637.165 831.016 635.007L867.643 575.432C868.971 573.273 871.78 572.609 873.919 573.948L1067.65 695.175C1080.66 703.315 1084.67 720.553 1076.6 733.677Z" fill="black"/>
<path id="path104" d="M908.217 593.387L866.784 660.777L858.752 655.752L900.185 588.361L908.217 593.387Z" fill="#4F6E82"/>
<path id="path106" d="M927.228 605.859L885.795 673.251L877.764 668.224L919.196 600.833L927.228 605.859Z" fill="#4F6E82"/>
<path id="path108" d="M352.996 281.801C293.631 378.359 323.2 505.639 418.911 565.529C514.623 625.419 640.785 595.587 700.151 499.029C759.516 402.471 729.947 275.192 634.236 215.301C538.524 155.412 412.36 185.244 352.996 281.801ZM717.556 509.92C652.239 616.16 513.424 648.984 408.116 583.088C302.808 517.193 270.272 377.149 335.589 270.909C400.908 164.669 539.723 131.847 645.032 197.743C750.34 263.637 782.873 403.68 717.556 509.92Z" fill="#1F1D20"/>
<g id="g110">
<g id="g112">
<path id="path124" d="M408.159 282.085C405.381 282.085 402.875 278.757 403.655 275.737C410.556 249.016 434.204 228.656 458.508 217.949C477.069 209.771 497.66 205.169 518.112 205.169C528.703 205.169 539.259 206.404 549.472 209.016C562.229 212.276 557.395 231.404 545.345 231.403C545.141 231.403 544.935 231.397 544.727 231.387C536.081 230.924 527.437 230.495 518.841 230.495C501.095 230.495 483.557 232.328 466.684 239.492C444.769 248.796 427.405 263.74 410.987 280.768C410.093 281.695 409.109 282.085 408.159 282.085Z" fill="url(#paint5_radial)"/>
</g>
</g>
<path id="path126" d="M525.433 184.992C413.321 184.992 322.111 277.008 322.111 390.111C322.111 503.216 413.321 595.232 525.433 595.232C637.545 595.232 728.755 503.216 728.755 390.111C728.755 277.008 637.545 184.992 525.433 184.992ZM525.433 599.205C411.148 599.205 318.171 505.407 318.171 390.111C318.171 274.816 411.148 181.017 525.433 181.017C639.719 181.017 732.695 274.816 732.695 390.111C732.695 505.407 639.719 599.205 525.433 599.205" fill="#C2C5C7" fill-opacity="0.95"/>
</g>
<defs>
<radialGradient id="paint0_radial" cx="0" cy="0" r="1" gradientUnits="userSpaceOnUse" gradientTransform="translate(439.117 439.14) scale(438.293)">
<stop stop-color="#4F6E82"/>
<stop offset="1" stop-color="#4F6E90"/>
</radialGradient>
<radialGradient id="paint1_radial" cx="0" cy="0" r="1" gradientUnits="userSpaceOnUse" gradientTransform="translate(439.117 439.14) scale(438.293)">
<stop stop-color="white"/>
<stop offset="1" stop-color="#4F6E82" stop-opacity="0.29"/>
</radialGradient>
<radialGradient id="paint2_radial" cx="0" cy="0" r="1" gradientUnits="userSpaceOnUse" gradientTransform="translate(439.117 439.14) scale(438.293 438.293)">
<stop stop-color="#8EAFA6"/>
<stop offset="1" stop-color="#75A197"/>
</radialGradient>
<radialGradient id="paint3_radial" cx="0" cy="0" r="1" gradientUnits="userSpaceOnUse" gradientTransform="translate(439.117 439.14) scale(438.293)">
<stop stop-color="#4F6E88"/>
<stop offset="1" stop-color="#4F6E82" stop-opacity="0.53"/>
</radialGradient>
<radialGradient id="paint4_radial" cx="0" cy="0" r="1" gradientUnits="userSpaceOnUse" gradientTransform="translate(439.117 439.14) scale(438.293)">
<stop stop-color="#4F6E82"/>
<stop offset="1" stop-color="#4F6E82"/>
</radialGradient>
<radialGradient id="paint5_radial" cx="0" cy="0" r="1" gradientUnits="userSpaceOnUse" gradientTransform="translate(439.117 439.14) scale(438.293 438.293)">
<stop stop-color="#EDF5F3"/>
<stop offset="1" stop-color="#E7F1EF"/>
</radialGradient>
</defs>
</svg>
